Coordinates
version=1
nRows=26
nColumns=22
inDegrees=yes

Units are S.I. units (second, meters, Newtons, ...)
If the header above contains a line with 'inDegrees', this indicates whether rotational values are in degrees (yes) or radians (no).

endheader
time	pelvis_tilt	pelvis_list	pelvis_rotation	pelvis_tx	pelvis_ty	pelvis_tz	hip_flexion_r	hip_adduction_r	hip_rotation_r	knee_angle_r	ankle_angle_r	subtalar_angle_r	hip_flexion_l	hip_adduction_l	hip_rotation_l	knee_angle_l	ankle_angle_l	subtalar_angle_l	lumbar_extension	lumbar_bending	lumbar_rotation
      1.55000000	      5.16024203	     -3.43747281	      7.05367585	     -1.34842237	      0.95466362	     -0.66936580	     -3.54087782	      4.62366325	    -10.12263073	     -8.71640300	      8.35483194	     -1.58864588	     -0.28658608	     -4.30219044	    -14.60099980	    -17.41409229	     20.49281358	     -8.79741319	    -13.00306091	      4.16152507	     -8.20354127
      1.56000000	      5.15985188	     -3.43712629	      7.06061252	     -1.34838797	      0.95463239	     -0.66939792	     -3.51179705	      4.61474098	    -10.09186944	     -8.77835097	      8.37049145	     -1.58504735	     -0.26565999	     -4.30352521	    -14.57696806	    -17.45485813	     20.50278442	     -8.79573216	    -13.03210329	      4.16124688	     -8.20118150
      1.57000000	      5.10520984	     -3.45107540	      7.05237693	     -1.34834662	      0.95449082	     -0.66941234	     -3.38794556	      4.60666315	    -10.08500456	     -8.90907280	      8.50574641	     -1.56424553	     -0.16636520	     -4.31709171	    -14.57653347	    -17.53363111	     20.56666738	     -8.80518896	    -12.99263825	      4.16685071	     -8.16168177
      1.58000000	      5.11274310	     -3.45067523	      7.05614691	     -1.34827512	      0.95446666	     -0.66944750	     -3.35782536	      4.59740345	    -10.05043384	     -8.99431487	      8.51667873	     -1.56173866	     -0.13651101	     -4.31778314	    -14.53251527	    -17.61038281	     20.57806987	     -8.80832748	    -13.02815030	      4.16276048	     -8.14946187
      1.59000000	      5.00696389	     -3.47814452	      7.05160719	     -1.34821299	      0.95422184	     -0.66946679	     -3.14592272	      4.59183978	    -10.07950107	     -9.18891585	      8.67655918	     -1.54037196	      0.06819221	     -4.34673241	    -14.52185154	    -17.78257659	     20.68820637	     -8.88628510	    -12.92163655	      4.17339122	     -8.12483589
      1.60000000	      4.99286020	     -3.51309224	      7.04543688	     -1.34808995	      0.95413635	     -0.66951067	     -3.04891324	      4.60714132	    -10.09225386	     -9.35679036	      8.75795787	     -1.53364081	      0.14424210	     -4.38135683	    -14.46405987	    -17.90182948	     20.76458520	     -8.93478028	    -12.92185817	      4.20612529	     -8.06699751
      1.61000000	      4.95253452	     -3.54110296	      7.04281568	     -1.34796583	      0.95399345	     -0.66954331	     -2.91181667	      4.61170557	    -10.10978714	     -9.54894223	      8.87694209	     -1.52421015	      0.28252478	     -4.41339845	    -14.41370474	    -18.08826368	     20.87620162	     -9.02134941	    -12.89298645	      4.22016821	     -8.03774624
      1.62000000	      4.88839225	     -3.56826799	      7.05417164	     -1.34782298	      0.95381191	     -0.66961614	     -2.75162689	      4.61344116	    -10.12426470	     -9.73849822	      8.96902102	     -1.51989012	      0.46475395	     -4.43917460	    -14.33158397	    -18.30619672	     20.98799233	     -9.15805928	    -12.83315920	      4.23223227	     -8.01772195
      1.63000000	      4.84700574	     -3.60984381	      7.05985775	     -1.34765063	      0.95366055	     -0.66970021	     -2.60745657	      4.63169311	    -10.13413579	     -9.94505757	      9.06286367	     -1.52081179	      0.61686726	     -4.47676357	    -14.22170655	    -18.51447847	     21.09862277	     -9.30903592	    -12.80116496	      4.26398904	     -7.98197563
      1.64000000	      4.83913603	     -3.64204859	      7.07250066	     -1.34741961	      0.95354504	     -0.66981292	     -2.51840833	      4.64762848	    -10.15327131	    -10.12612956	      9.18459453	     -1.52023842	      0.74112949	     -4.51095204	    -14.12548387	    -18.74920517	     21.24148008	     -9.41971494	    -12.80654157	      4.28584165	     -7.94191284
      1.65000000	      4.84778813	     -3.69569298	      7.08109741	     -1.34715803	      0.95345147	     -0.66994693	     -2.44155745	      4.68797209	    -10.15640185	    -10.31765370	      9.29647459	     -1.52223466	      0.84018296	     -4.56141144	    -13.98374693	    -18.96747975	     21.36029937	     -9.52087186	    -12.83311916	      4.33662056	     -7.88408919
      1.66000000	      4.80618716	     -3.72712524	      7.12117433	     -1.34689166	      0.95325911	     -0.67015463	     -2.32249712	      4.69982940	    -10.17668527	    -10.49504722	      9.40210361	     -1.53743059	      1.03981643	     -4.58726108	    -13.82500563	    -19.27252474	     21.52636530	     -9.74864571	    -12.80248486	      4.35491465	     -7.86248883
      1.67000000	      4.81301299	     -3.76971953	      7.15248348	     -1.34657916	      0.95313693	     -0.67038463	     -2.25974572	      4.73096859	    -10.18535200	    -10.66924883	      9.50998283	     -1.54903145	      1.17014233	     -4.62071452	    -13.64304880	    -19.54949919	     21.67861787	     -9.95225555	    -12.83122337	      4.39352718	     -7.82532152
      1.68000000	      4.80979177	     -3.81051476	      7.19686969	     -1.34627506	      0.95298605	     -0.67068937	     -2.17582445	      4.75429371	    -10.19823533	    -10.86608005	      9.59845279	     -1.55790580	      1.32425502	     -4.64383064	    -13.41972542	    -19.84632996	     21.83203970	    -10.24454668	    -12.85188897	      4.43607547	     -7.78294027
      1.69000000	      4.84202272	     -3.85008545	      7.25285374	     -1.34591624	      0.95286167	     -0.67102595	     -2.15426722	      4.78421978	    -10.23566881	    -11.02426101	      9.72536622	     -1.54710710	      1.44750083	     -4.67383387	    -13.20686445	    -20.16607606	     22.01632020	    -10.45119251	    -12.91339528	      4.47408810	     -7.72478878
      1.70000000	      4.83668476	     -3.89356075	      7.31971998	     -1.34561866	      0.95266404	     -0.67143782	     -2.06063600	      4.80525095	    -10.28134610	    -11.23942948	      9.82046193	     -1.52460517	      1.62720366	     -4.69085283	    -12.93727057	    -20.50157756	     22.20265331	    -10.82423705	    -12.94235401	      4.52332151	     -7.68594736
      1.71000000	      4.87575884	     -3.94312331	      7.38788753	     -1.34526496	      0.95250967	     -0.67188416	     -2.03734780	      4.83893820	    -10.34262842	    -11.41587022	      9.95685383	     -1.50087536	      1.75625096	     -4.72217595	    -12.68703607	    -20.84329279	     22.40344314	    -11.05419263	    -13.02176903	      4.58131022	     -7.60820424
      1.72000000	      4.87642391	     -3.99671127	      7.47662135	     -1.34492653	      0.95227700	     -0.67239615	     -1.95873340	      4.86738286	    -10.42622621	    -11.61923107	     10.07548959	     -1.47360393	      1.94370086	     -4.74616040	    -12.39125006	    -21.20862320	     22.62373850	    -11.42157831	    -13.05926453	      4.64132231	     -7.56526984
      1.73000000	      4.86231955	     -4.05174113	      7.55170004	     -1.34456739	      0.95202842	     -0.67297010	     -1.85473279	      4.88750411	    -10.48411406	    -11.84437335	     10.16698711	     -1.45471509	      2.12593401	     -4.75361488	    -12.07481064	    -21.53977494	     22.81224798	    -11.89609431	    -13.08308037	      4.70899002	     -7.51210120
      1.74000000	      4.87910631	     -4.11240011	      7.64515999	     -1.34411530	      0.95180417	     -0.67361995	     -1.81081967	      4.91831550	    -10.56046101	    -12.02801275	     10.29631067	     -1.45104716	      2.26916305	     -4.77484476	    -11.78429742	    -21.87222573	     23.03350717	    -12.22990428	    -13.13395066	      4.79247916	     -7.47123440
      1.75000000	      4.88868822	     -4.17649844	      7.73363722	     -1.34357785	      0.95156696	     -0.67432255	     -1.76978302	      4.94773577	    -10.62926700	    -12.20136306	     10.43329007	     -1.45829443	      2.39892382	     -4.79197297	    -11.49683824	    -22.17766605	     23.24991888	    -12.56450003	    -13.17043891	      4.88003240	     -7.42327312
      1.76000000	      4.90093154	     -4.23555297	      7.81990001	     -1.34294770	      0.95133697	     -0.67509477	     -1.74515648	      4.96857580	    -10.68141019	    -12.36197213	     10.57513427	     -1.47042477	      2.49770408	     -4.79920914	    -11.23281367	    -22.44592878	     23.46383815	    -12.85646233	    -13.20593106	      4.96907434	     -7.38743086
      1.77000000	      4.92392137	     -4.28480965	      7.89360846	     -1.34218544	      0.95112905	     -0.67589777	     -1.76088147	      4.98175239	    -10.71016109	    -12.48395796	     10.73734123	     -1.47364744	      2.54780746	     -4.79678215	    -11.01368566	    -22.66825203	     23.68150257	    -13.01830705	    -13.24442495	      5.04705802	     -7.34927507
      1.78000000	      4.92343068	     -4.32648839	      7.96777498	     -1.34135667	      0.95089497	     -0.67677998	     -1.74781454	      4.97569337	    -10.74503483	    -12.62691728	     10.88166390	     -1.48078194	      2.59724982	     -4.77382749	    -10.79266288	    -22.84858767	     23.89182880	    -13.23611605	    -13.25478810	      5.12354618	     -7.34918069
      1.79000000	      4.91949059	     -4.35900077	      8.03444297	     -1.34043207	      0.95067364	     -0.67771684	     -1.74207752	      4.95653294	    -10.76775420	    -12.76388546	     11.01415767	     -1.48268476	      2.61228847	     -4.73667462	    -10.60074300	    -22.97190356	     24.08359647	    -13.40950069	    -13.25802834	      5.19408317	     -7.36679912
      1.80000000	      4.91543459	     -4.38607637	      8.09118530	     -1.33939980	      0.95047154	     -0.67869930	     -1.75616425	      4.93168049	    -10.76927829	    -12.87603023	     11.12825292	     -1.47705145	      2.58463600	     -4.69051340	    -10.43336671	    -23.03138437	     24.26630261	    -13.46117899	    -13.25615676	      5.26185887	     -7.38504624
